<svg width="100" height="100" viewBox="0 0 100 100" fill="none" xmlns="http://www.w3.org/2000/svg">
<rect x="6.10352e-05" width="100" height="100" rx="20" fill="#CA0DAC"/>
<path d="M62.4376 23.625V30.0938H36.5626V23.625H19.3126V40.875H36.5626V34.4062H51.7059C50.2809 36.2621 49.5058 38.5352 49.5001 40.875V58.125C49.4978 59.8399 48.8155 61.4839 47.6029 62.6966C46.3903 63.9092 44.7462 64.5915 43.0313 64.5938H36.5626V58.125H19.3126V75.375H36.5626V68.9062H43.0313C45.8896 68.9028 48.6299 67.7659 50.651 65.7447C52.6722 63.7236 53.8091 60.9833 53.8126 58.125V40.875C53.812 40.0259 53.9787 39.185 54.3032 38.4003C54.6277 37.6157 55.1036 36.9026 55.7037 36.3019C56.3038 35.7012 57.0163 35.2246 57.8007 34.8994C58.585 34.5741 59.4257 34.4065 60.2748 34.4062H62.4376V40.875H79.6876V23.625H62.4376ZM32.2501 36.5625H23.6251V27.9375H32.2501V36.5625ZM32.2501 71.0625H23.6251V62.4375H32.2501V71.0625ZM75.3751 36.5625H66.7501V27.9375H75.3751V36.5625Z" fill="white"/>
</svg>
