<svg width="288" height="546" viewBox="0 0 288 546" fill="none" xmlns="http://www.w3.org/2000/svg">
<path d="M205.579 500.608L216.595 527.075L234.556 517.537L223.595 491.572L205.579 500.608Z" fill="#FCC9A7"/>
<path d="M210.543 525.514C210.543 523.925 211.91 522.893 213.276 523.478C215.954 524.622 220.36 525.598 225.631 523.227C231.098 520.773 232.102 516.729 232.129 514.08C232.129 512.685 233.133 511.625 234.389 511.821L274.466 517.594C276.892 517.956 279.179 519.351 280.796 521.526C282.33 523.562 281.605 526.518 279.458 527.188L219.635 545.372C217.292 546.097 214.727 544.395 214.029 541.662L210.655 528.275C210.599 528.052 210.571 527.829 210.571 527.606L210.543 525.514Z" fill="#1F252A"/>
<path d="M43.179 436.407L18.0785 450.24L29.4853 467.058L54.1116 453.336L43.179 436.407Z" fill="#FCC9A7"/>
<path d="M18.9709 444.049C20.5606 443.881 21.732 445.136 21.3137 446.531C20.477 449.292 19.9749 453.81 22.9033 458.774C25.9433 463.934 30.0709 464.52 32.7204 464.213C34.1149 464.073 35.2583 464.938 35.2305 466.193L33.8639 506.66C33.7802 509.115 32.6367 511.541 30.6566 513.382C28.8159 515.111 25.776 514.748 24.8835 512.657L0.312897 455.177C-0.663235 452.918 0.759144 450.184 3.38074 449.208L16.3215 444.383C16.5446 444.3 16.7677 444.244 16.9908 444.216L18.9709 444.049Z" fill="#1F252A"/>
<path d="M192.304 244.918L182.626 307L133.708 394.935L49.482 468.173L29.848 433.451L96.643 371.146L135.828 245.978L192.304 244.918Z" fill="#092330"/>
<path d="M112.819 241.376C112.819 241.376 103.085 259.783 118.201 289.179L165.139 378.76L200.921 514.525L236.452 502.114L210.934 364.815L165.697 257.664L192.303 244.918L112.819 241.376Z" fill="#0C2C40"/>
<path d="M215.145 66.7059C208.953 73.4831 198.439 73.9571 191.69 67.7936C184.913 61.6021 184.438 51.0879 190.602 44.3108C196.793 37.5336 207.28 37.0595 214.085 43.223C220.862 49.4424 221.336 59.9288 215.145 66.7059Z" fill="#FCC9A7"/>
<path d="M228.42 75.2408L213.973 57.8379L202.455 69.412L216.009 86.0062L228.42 75.2408Z" fill="#FCC9A7"/>
<path d="M195.817 34.4932L209.065 52.2308C210.794 54.5456 210.738 57.7529 208.925 59.984L198.188 73.2315C195.678 76.3272 190.993 76.3551 188.455 73.3151L173.478 55.4939C171.414 53.0396 171.526 49.4139 173.729 47.0712L186.196 33.9074C188.873 31.0906 193.475 31.3417 195.817 34.4932Z" fill="#1C2226"/>
<path d="M182.124 97.0203L234.64 123.376L205.802 78.8922L224.822 62.4375L284.952 144.823C290.418 151.907 288.299 162.226 280.462 166.549C276.474 168.752 271.677 168.975 267.493 167.134L189.626 136.205L182.124 97.0203Z" fill="#F7ECE7"/>
<path d="M200.921 122.317C200.921 122.317 191.634 195.137 192.304 244.919C192.304 244.919 164.442 257.19 105.372 239.258L119.986 103.855L148.434 94.2886L182.124 97.0218L200.921 122.317Z" fill="#F7ECE7"/>
<path d="M172.586 89.9365L171.86 94.6777C171.805 95.0124 171.916 95.3749 172.167 95.6259L179.446 103.351C180.116 104.048 181.287 103.658 181.399 102.71L182.152 97.0204C182.207 96.6578 182.068 96.2953 181.789 96.0442L174.51 89.2671C173.813 88.6536 172.697 89.0161 172.586 89.9365Z" fill="#FCF3F0"/>
<path d="M162.852 102.181C154.206 101.483 147.764 93.8696 148.461 85.2239L150.553 59.9004L181.9 62.4663L175.43 97.4674C174.398 101.93 171.526 102.878 162.852 102.181Z" fill="#FCC9A7"/>
<path d="M149.493 68.7688C149.493 68.7688 156.242 87.9567 169.936 85.5861C182.514 83.4107 181.9 62.4658 181.9 62.4658L149.493 68.7688Z" fill="#F4BE9A"/>
<path d="M167.761 78.6143L164.972 78.3075C151.083 76.8015 141.015 64.3071 142.521 50.4181L144.222 34.577C145.728 20.6881 158.223 10.62 172.111 12.126L174.9 12.4328C188.789 13.9388 198.857 26.4333 197.351 40.3222L195.65 56.1634C194.144 70.0802 181.65 80.1203 167.761 78.6143Z" fill="#FCC9A7"/>
<path d="M167.761 78.6143L164.972 78.3075C151.083 76.8015 141.015 64.3071 142.521 50.4181L144.222 34.577C145.728 20.6881 158.223 10.62 172.111 12.126L174.9 12.4328C188.789 13.9388 198.857 26.4333 197.351 40.3222L195.65 56.1634C194.144 70.0802 181.65 80.1203 167.761 78.6143Z" fill="#FCC9A7"/>
<path d="M143.079 45.3983C144.975 45.203 152.924 51.2272 154.987 48.6056C157.832 44.98 160.426 38.3702 156.744 31.5094C156.131 30.3659 155.963 29.0273 156.354 27.7722C157.079 25.5132 159.031 22.8916 164.414 24.788C173.032 27.828 192.415 37.5892 198.021 23.6167C205.105 6.01846 149.382 10.927 149.382 10.927L136.692 29.2782L142.13 55.4385L143.079 45.3983Z" fill="#1C2226"/>
<path d="M150.832 48.0477C150.302 53.012 145.839 56.6098 140.875 56.052C135.911 55.5221 132.313 51.0598 132.871 46.0954C133.401 41.1311 137.863 37.5334 142.827 38.0912C147.792 38.649 151.362 43.0834 150.832 48.0477Z" fill="#FCC9A7"/>
<path d="M165.697 107.564L158.585 217.197L171.832 229.635L179.697 217.587L171.832 105.388L165.697 107.564Z" fill="#0C2C40"/>
<path d="M176.295 100.006L175.207 98.4998L175.486 97.189H159.812L158.585 101.289L169.016 110.492L176.295 100.006Z" fill="#0C2C40"/>
<path d="M149.465 83.7468L164.302 93.8428C165.976 94.9863 166.199 97.3848 164.749 98.8071L153.091 110.27C151.78 111.553 149.633 111.497 148.405 110.102L136.664 96.9106C135.52 95.6277 135.576 93.6476 136.803 92.4483L145.393 84.0536C146.481 83.0217 148.182 82.8822 149.465 83.7468Z" fill="#FCF3F0"/>
<path d="M212.328 88.9607L234.528 75.5737" stroke="#EADDD8" stroke-width="0.7599" stroke-miterlimit="10" stroke-linecap="round" stroke-linejoin="round"/>
<path d="M171.889 194.104L179.67 277.298C179.976 280.422 177.829 283.266 174.733 283.88L79.3237 302.12C75.8097 302.789 72.4908 300.335 72.1004 296.793L63.371 217.726C63.0363 214.659 65.0443 211.814 68.0564 211.089L164.414 188.749C168.012 187.885 171.526 190.423 171.889 194.104Z" fill="#AFAFAF"/>
<path d="M165.111 195.582L172.893 278.776C173.171 281.9 171.052 284.745 167.956 285.358L72.5465 303.598C69.0324 304.267 65.7136 301.813 65.3232 298.271L56.5938 219.205C56.2591 216.137 58.2671 213.292 61.2792 212.567L157.637 190.2C161.263 189.363 164.777 191.901 165.111 195.582Z" fill="#D1D1D1"/>
<path d="M129.106 272.139C136.776 265.111 148.712 265.641 155.74 273.311C162.769 280.98 162.239 292.917 154.569 299.945C146.899 306.973 134.963 306.443 127.935 298.774C120.907 291.076 121.436 279.167 129.106 272.139Z" fill="#FCC9A7"/>
<path d="M114.966 261.151L129.524 282.291L143.692 270.354L130.082 250.246L114.966 261.151Z" fill="#FCC9A7"/>
<path d="M119.958 103.854C119.958 103.854 98.6231 106.001 92.4316 140.891L67.889 191.873C67.2196 194.104 66.7734 196.391 66.5502 198.678L118.174 272.836L141.461 259.03L99.7108 192.096L125.062 151.963L119.958 103.854Z" fill="#F7ECE7"/>
<path d="M133.875 249.019L110.364 261.625" stroke="#EADDD8" stroke-width="0.7599" stroke-miterlimit="10" stroke-linecap="round" stroke-linejoin="round"/>
<path d="M112.651 171.625L127.684 145.465" stroke="#EADDD8" stroke-width="0.7599" stroke-miterlimit="10" stroke-linecap="round" stroke-linejoin="round"/>
<path d="M192.276 29.8354C202.929 25.0106 200.698 12.5719 198.272 8.63948C198.272 8.63948 197.798 15.6397 193.029 14.0221C193.029 14.0221 193.67 3.5915 179.697 0.88623C179.697 0.88623 184.857 10.2571 166.478 8.47215C143.915 6.26888 142.605 20.5483 143.86 38.2859L150.776 33.3216L156.131 20.9666H174.398L192.276 29.8354Z" fill="#1C2226"/>
</svg>
