<svg width="100" height="100" viewBox="0 0 100 100" fill="none" xmlns="http://www.w3.org/2000/svg">
<rect x="6.10352e-05" width="100" height="100" rx="20" fill="#CA0DAC"/>
<path d="M65.4376 26.4062L65.4688 26.3906H65.4844L50.0001 17.5L34.5235 26.3906H34.5079L34.5626 26.4141L21.836 33.75V66.25L50.0001 82.5L78.1641 66.25V33.75L65.4376 26.4062ZM47.711 75.9062L36.5313 69.4531V58.5469L26.4063 52.7969V39.1328L47.711 51.4219V75.9062ZM28.6094 35.1172L39.1329 29.0391L49.9844 35.2656L60.8516 29.0234L71.4141 35.1172L50.0157 47.4609L28.6094 35.1172ZM73.5938 52.8359L63.5313 58.5469V69.4141L52.2891 75.8984V51.4375L73.5938 39.1484V52.8359Z" fill="white"/>
</svg>
