<svg width="483" height="453" viewBox="0 0 483 453" fill="none" xmlns="http://www.w3.org/2000/svg">
<path d="M286.823 216.074V447.345" stroke="#2A272D" stroke-width="1.9882" stroke-miterlimit="10"/>
<path d="M454.112 216.074V447.345" stroke="#2A272D" stroke-width="1.9882" stroke-miterlimit="10"/>
<path d="M187.911 287.498C187.911 287.498 220.012 280.221 224.845 301.118C229.019 319.05 185.357 318.363 185.357 318.363L89.3562 318.94C89.3562 318.94 53.1909 323.114 35.3143 281.402C17.4376 239.69 0.219978 130.452 0.219978 130.452C0.219978 130.452 -2.3613 115.432 10.1606 113.235C24.8793 110.653 27.7627 142.452 27.7627 142.452C27.7627 142.452 50.0055 277.283 82.2989 283.873C87.2692 284.889 91.2235 288.651 96.3037 288.596L187.911 287.498Z" fill="#FFEEE3"/>
<path d="M273.23 178.59L303.547 176.503C306.018 176.339 308.38 177.464 309.78 179.469L326.723 205.09L312.307 205.776L304.178 193.282C304.178 193.282 280.755 199.131 272.105 193.282L273.23 178.59Z" fill="#F2C09E"/>
<path d="M151.114 95.5777L191.618 170.846L275.784 173.538V201.218L186.895 205.117C175.142 205.639 163.993 200.009 157.403 190.261L116.954 117.628L151.114 95.5777Z" fill="#EFC375"/>
<path d="M275.784 173.51V201.19L266.393 201.602V173.208L275.784 173.51Z" fill="#F7E5DA"/>
<path d="M231.683 396.625L236.434 429.907L260.379 428.424L256.947 394.071L231.683 396.625Z" fill="#FCC9A7"/>
<path d="M231.079 426.53C231.601 424.964 233.468 424.333 234.814 425.294C237.45 427.161 242.091 429.385 248.763 428.534C255.711 427.655 258.155 423.948 259.006 421.34C259.445 419.967 260.928 419.225 262.274 419.747L305.442 436.662C308.078 437.678 310.165 439.711 311.291 442.292C312.334 444.708 310.604 447.427 307.94 447.482L234.841 448.553C231.958 448.608 229.651 446.219 229.761 443.335L230.283 429.221C230.283 428.973 230.338 428.754 230.42 428.534L231.079 426.53Z" fill="#1F252A"/>
<path d="M158.941 89.1245L165.806 100.136C166.245 101.18 166.437 103.706 164.543 104.64L161.879 106.562L156.167 97.8294L158.941 89.1245Z" fill="#FFEEE3"/>
<path d="M146.144 100.768L143.975 99.7241C136.835 96.2366 133.869 87.6141 137.357 80.4744L160.533 33.0229L186.264 45.5998L159.49 98.7355C156.634 104.639 152.048 103.651 146.144 100.768Z" fill="#FCC9A7"/>
<path d="M205.458 54.9638C197.907 70.3965 179.261 76.8222 163.828 69.2706C148.396 61.7191 141.97 43.101 149.522 27.6408C157.073 12.2081 175.691 5.78238 191.151 13.334C206.612 20.8856 213.01 39.5311 205.458 54.9638Z" fill="#FCC9A7"/>
<path d="M167.893 85.6645C160.561 82.0947 157.513 73.225 161.11 65.8931L174.181 39.1193L205.706 54.5245L195.051 76.3555C190.108 86.4059 177.943 90.6074 167.893 85.6645Z" fill="#FCC9A7"/>
<path d="M201.614 60.813L203.316 72.7857C203.454 74.6805 201.449 75.9162 199.692 75.0649L191.948 72.9505L201.614 60.813Z" fill="#FCC9A7"/>
<path d="M174.319 54.8265C174.319 54.8265 185.22 55.5405 187.005 38.7073C187.005 38.7073 205.953 50.7899 213.669 45.9843C213.669 45.9843 216.031 -1.6319 176.68 0.0431813C137.329 1.71826 134.254 44.1994 134.254 44.1994L156.332 64.1356L174.319 54.8265Z" fill="#1C2226"/>
<path d="M175.884 55.513C173.824 59.7694 168.689 61.5268 164.433 59.4399C160.204 57.3529 158.419 52.2453 160.506 47.9889C162.565 43.7326 167.7 41.9751 171.957 44.0621C176.186 46.1491 177.943 51.2567 175.884 55.513Z" fill="#FCC9A7"/>
<path d="M151.856 49.1971L146.007 62.8449C146.007 62.8449 158.858 73.1425 165.339 59.8792L156.002 57.243L151.856 49.1971Z" fill="#1C2226"/>
<path d="M187.005 38.7074C187.005 38.7074 212.681 58.5337 222.813 41.9202C230.887 28.6569 221.907 20.0618 208.946 22.2037C203.344 23.1374 200.571 19.3479 196.177 16.3547L187.005 38.7074Z" fill="#1C2226"/>
<path d="M163.938 113.207C163.938 113.207 163.362 101.097 159.517 96.8957C155.673 92.6943 135.187 81.106 135.187 81.106C135.187 81.106 105.722 89.6462 87.6261 123.313C73.539 149.537 60.2756 215.909 60.2756 215.909L145.293 228.238C152.625 178.645 166.355 156.045 163.938 113.207Z" fill="#FFD686"/>
<path d="M136.615 78.7719L133.073 80.3646C131.81 80.9413 131.535 82.6438 132.579 83.5774L155.041 103.569C155.947 104.392 157.375 104.145 158.007 103.102L160.533 98.7356C161 97.9117 160.808 96.8682 160.067 96.2641L138.593 79.0739C138.043 78.5797 137.274 78.4698 136.615 78.7719Z" fill="#FFEEE3"/>
<path d="M263.867 183.094L294.183 181.007C296.654 180.842 299.016 181.968 300.417 183.972L315.959 206.078L301.433 207.945L294.815 197.758C294.815 197.758 271.391 203.607 262.741 197.758L263.867 183.094Z" fill="#FCC9A7"/>
<path d="M133.897 101.18L179.646 178.37L266.421 180.76V205.721L172.781 209.813C163.993 210.197 155.618 205.996 150.675 198.691L99.7363 123.23L133.897 101.18Z" fill="#FFD686"/>
<path d="M266.421 180.76V205.694L257.029 206.105V180.76H266.421Z" fill="#FFEEE3"/>
<path d="M60.2757 215.909L227.509 240.156C240.306 242.024 250.191 252.376 251.427 265.255L263.894 407.692L226.548 410.108L208.589 286.647L103.581 289.365C75.0768 289.365 53.2184 264.047 57.3649 235.845L60.2757 215.909Z" fill="#54585A"/>
<path d="M356.683 205.117H268.48V210.829H356.683V205.117Z" fill="#2A272D"/>
<path d="M356.71 210.829L385.241 127.486L379.255 126.059L351.273 206.105L356.71 210.829Z" fill="#2A272D"/>
<path d="M166.492 84.8956C166.492 84.8956 158.556 80.1999 158.556 70.3141C158.556 70.3141 153.613 81.0237 163.691 90.4426L166.492 84.8956Z" fill="#F2C09E"/>
<path d="M36.3028 452.727C37.6209 452.727 38.8291 451.82 39.1861 450.475L82.848 278.326C86.4728 264.074 99.2419 254.106 113.961 254.106C128.24 254.106 140.927 263.69 144.826 277.42C160.094 331.215 195.628 448.58 195.985 449.761C196.451 451.326 198.126 452.232 199.692 451.738C201.257 451.271 202.163 449.596 201.669 448.031C201.312 446.85 165.778 329.54 150.538 275.8C145.924 259.516 130.876 248.147 113.933 248.147C96.4958 248.147 81.3377 259.955 77.0539 276.843L33.392 449.02C32.9801 450.612 33.9412 452.232 35.5339 452.644C35.8085 452.699 36.0556 452.727 36.3028 452.727Z" fill="#1F252A"/>
<path d="M150.703 198.664L124.478 159.862" stroke="#EFC375" stroke-width="0.7847" stroke-miterlimit="10" stroke-linecap="round" stroke-linejoin="round"/>
<path d="M483 210.829H254.503V221.126H483V210.829Z" fill="#FFEEE3"/>
<path d="M286.823 246.143H454.112" stroke="#2A272D" stroke-width="1.9882" stroke-miterlimit="10"/>
</svg>
