<svg width="406" height="635" viewBox="0 0 406 635" fill="none" xmlns="http://www.w3.org/2000/svg">
<path d="M375.512 413.959H247.041V617.807H375.512V413.959Z" fill="#B2B2B2"/>
<path d="M247.543 413.96H119.072V617.808H247.543V413.96Z" fill="#D1D1D1"/>
<path d="M180.234 166.758L174.757 276.333L149.005 356.685H195.368L219.448 287.453L226.974 208.774L180.234 166.758Z" fill="#F7EBE7"/>
<path d="M178.938 549.746L188.261 593.183L156.948 596.904L148.043 554.136L178.938 549.746Z" fill="#FCC9A7"/>
<path d="M190.142 589.253C189.348 586.912 186.84 586.076 185.126 587.581C181.781 590.549 175.761 594.187 166.856 593.309C157.617 592.389 154.147 586.954 152.809 583.024C152.099 580.976 150.134 579.931 148.378 580.809L92.3155 608.986C88.9292 610.7 86.2535 613.877 84.9157 617.849C83.6615 621.57 86.1699 625.583 89.6817 625.499L186.547 622.824C190.352 622.74 193.278 618.978 192.943 614.63L191.355 593.309C191.313 592.974 191.271 592.598 191.146 592.263L190.142 589.253Z" fill="#1F252A"/>
<path d="M178.395 339.711H105.693C105.693 339.711 61.4205 337.245 58.7867 373.574C56.1528 409.904 123.712 513.835 134.289 569.354L195.076 564.337L151.304 413.374L260.168 414.001C268.237 414.043 276.263 412.872 283.872 410.239C305.068 402.881 337.426 392.345 319.784 333.984L178.395 339.711Z" fill="#092330"/>
<path d="M234.499 549.914L249.299 601.837L217.985 605.558L203.604 554.303L234.499 549.914Z" fill="#FCC9A7"/>
<path d="M251.18 597.908C250.385 595.566 247.877 594.73 246.163 596.235C242.818 599.204 236.798 602.841 227.894 601.963C218.654 601.043 215.184 595.608 213.846 591.678C213.136 589.63 211.171 588.585 209.415 589.463L153.353 617.64C149.966 619.354 147.291 622.532 145.953 626.503C144.699 630.224 147.207 634.237 150.719 634.154L249.257 631.478C253.061 631.395 255.987 627.632 255.653 623.284L252.35 601.963C252.308 601.628 252.267 601.252 252.141 600.918L251.18 597.908Z" fill="#1F252A"/>
<path d="M265.268 123.698C266.899 125.287 339.851 143.89 339.851 143.89L324.257 185.32L244.491 179.3L265.268 123.698Z" fill="#F7EBE7"/>
<path d="M235.168 133.689C235.168 133.689 187.634 151.039 180.234 166.758C182.785 188.957 190.602 210.32 203.479 228.589C219.282 250.998 238.805 289.501 235.21 339.711H372.627C372.627 339.711 365.228 198.447 324.55 144.224L235.168 133.689Z" fill="#F7EBE7"/>
<path d="M250.761 156.097C264.265 153.338 272.961 140.169 270.201 126.666L262.133 87.1586L213.261 97.1503L221.33 136.657C224.089 150.161 237.258 158.857 250.761 156.097Z" fill="#FCC9A7"/>
<path d="M265.477 100.955C265.477 100.955 260.335 132.979 235.418 134.902C213.595 136.574 215.686 105.01 215.686 105.01L265.477 100.955Z" fill="#F4BE9A"/>
<path d="M237.383 117.343L241.689 116.34C263.303 111.323 276.765 89.7507 271.748 68.1786L266.062 43.5546C261.045 21.9407 239.474 8.47907 217.901 13.4958L213.595 14.4992C191.981 19.516 178.52 41.088 183.536 62.6601L189.222 87.2841C194.239 108.898 215.811 122.36 237.383 117.343Z" fill="#FCC9A7"/>
<path d="M258.203 78.421C257.2 80.1351 256.238 82.7271 255.903 86.6569C255.527 91.6318 253.019 96.3559 248.838 99.1152C236.84 107.058 227.684 86.9495 209.958 90.503C209.958 90.503 203.018 91.5482 201.639 99.2824C200.259 106.975 190.602 93.5131 188.47 84.3157C186.338 75.1183 185.251 129.843 228.897 125.202C228.897 125.202 250.929 124.492 265.77 102.042C267.4 99.575 268.362 96.6904 268.445 93.7221C268.571 89.3325 267.944 82.6852 263.763 77.9193C262.3 76.1634 259.374 76.4143 258.203 78.421Z" fill="#1C2226"/>
<path d="M258.245 66.0048C258.245 66.0048 239.39 59.7756 242.567 32.2252C242.567 32.2252 195.744 76.54 161.045 44.0146C161.045 44.0146 176.555 39.8758 182.952 29.257C194.616 9.9006 228.144 -16.7719 254.984 14.0813C254.984 14.0813 287.635 9.02268 278.27 59.3158L258.245 66.0048Z" fill="#1C2226"/>
<path d="M258.244 66.0046C260.042 73.697 267.735 78.5047 275.427 76.7489C283.161 74.9512 287.927 67.2588 286.171 59.5664C284.373 51.8741 276.681 47.0663 268.989 48.8222C261.254 50.6199 256.447 58.3123 258.244 66.0046Z" fill="#FCC9A7"/>
<path d="M234.416 154.551L254.608 154.927L240.477 184.192L225.218 156.14L234.416 154.551Z" fill="#0C2C40"/>
<path d="M271.916 124.994L245.912 155.345L262.844 174.785L293.989 131.975C293.989 131.975 286.004 119.141 271.916 124.994Z" fill="#FFF7F3"/>
<path d="M234.416 154.551L219.449 171.441L208.914 145.103C208.914 145.103 211.673 133.271 220.285 135.529L234.416 154.551Z" fill="#FFF7F3"/>
<path d="M239.934 174.743C239.934 174.743 220.41 225.663 225.26 297.905L244.491 315.463L266.941 293.85L242.735 171.44L239.934 174.743Z" fill="#0C2C40"/>
<path d="M276.431 295.647L234.625 309.402L231.865 333.942L287.301 317.387L276.431 295.647Z" fill="#FCC9A7"/>
<path d="M240.853 325.623C240.853 339.962 229.231 351.626 214.85 351.626C200.51 351.626 188.846 340.004 188.846 325.623C188.846 311.283 200.468 299.619 214.85 299.619C229.189 299.619 240.853 311.241 240.853 325.623Z" fill="#FCC9A7"/>
<path d="M235.168 339.711H162.509C162.509 339.711 118.236 337.244 115.602 373.574C112.968 409.904 185.502 520.524 196.079 576.001L256.866 570.984L208.119 413.332L316.983 413.959C325.052 414.001 333.079 412.83 340.688 410.197C361.883 402.839 394.241 392.303 376.599 333.942L235.168 339.711Z" fill="#0C2C40"/>
<path d="M15.9768 211.24H141.605C145.744 211.24 149.297 214.125 150.175 218.18L173.838 329.134C175.008 334.569 170.828 339.711 165.267 339.711H37.549C33.3683 339.711 29.773 336.743 28.9787 332.646L7.40659 221.692C6.31962 216.257 10.4584 211.24 15.9768 211.24Z" fill="#B2B2B2"/>
<path d="M8.74442 211.24H134.331C138.47 211.24 142.023 214.125 142.901 218.18L166.564 329.134C167.734 334.569 163.595 339.711 157.993 339.711H30.3165C26.1359 339.711 22.5406 336.743 21.7463 332.646L0.174164 221.692C-0.912802 216.257 3.22598 211.24 8.74442 211.24Z" fill="#D1D1D1"/>
<path d="M170.41 330.221H256.238C258.872 330.221 260.963 332.353 260.963 334.945C260.963 337.579 258.83 339.669 256.238 339.669H168.738L170.41 330.221Z" fill="#B2B2B2"/>
<path d="M86.504 272.57C86.504 280.137 80.4003 286.241 72.8334 286.241C65.2664 286.241 59.1627 280.095 59.1627 272.57C59.1627 265.003 65.3082 258.9 72.8334 258.9C80.4003 258.9 86.504 265.003 86.504 272.57Z" fill="white"/>
<path d="M309.876 183.355L355.779 257.478L245.912 296.693L260.962 329.218C260.962 329.218 354.901 318.683 400.303 283.691C404.484 280.472 406.574 275.246 405.863 270.02C403.731 253.298 394.617 212.704 355.779 155.011C347.878 143.263 332.158 139.71 319.909 146.817C307.158 154.175 302.685 170.479 309.876 183.355Z" fill="#F7EBE7"/>
<path d="M275.135 286.241L355.779 257.478L315.436 192.302" stroke="#EADDD8" stroke-width="0.7599" stroke-miterlimit="10" stroke-linecap="round" stroke-linejoin="round"/>
<path d="M220.536 261.701L200.678 209.276" stroke="#EADDD8" stroke-width="0.7599" stroke-miterlimit="10" stroke-linecap="round" stroke-linejoin="round"/>
<path d="M276.431 327.002C276.431 327.002 338.137 319.268 369.241 301.458" stroke="#EADDD8" stroke-width="0.7599" stroke-miterlimit="10" stroke-linecap="round" stroke-linejoin="round"/>
</svg>
